<svg width="35" height="35" viewBox="0 0 35 35" fill="none" xmlns="http://www.w3.org/2000/svg">
<path fill-rule="evenodd" clip-rule="evenodd" d="M17.5 0C7.83895 0 0 7.83895 0 17.5C0 27.161 7.83895 35 17.5 35C27.1421 35 35 27.161 35 17.5C35 7.83895 27.1421 0 17.5 0ZM29.0591 8.0667C31.147 10.6101 32.3997 13.8558 32.4376 17.3671C31.9441 17.2722 27.0092 16.2663 22.0363 16.8926C21.9225 16.6459 21.8275 16.3801 21.7137 16.1144C21.41 15.3932 21.0683 14.6529 20.7267 13.9507C26.231 11.711 28.7364 8.48428 29.0591 8.0667ZM17.5 2.58134C21.2961 2.58134 24.7695 4.00488 27.4078 6.33948C27.1421 6.71909 24.8834 9.737 19.5689 11.7299C17.1204 7.23156 14.4062 3.54935 13.9886 2.97993C15.1084 2.71421 16.2853 2.58134 17.5 2.58134ZM11.1416 3.9859C11.5401 4.51734 14.1974 8.21856 16.6838 12.622C9.69902 14.4821 3.53038 14.4441 2.86605 14.4441C3.83404 9.81292 6.96584 5.95987 11.1416 3.9859ZM2.54338 17.519C2.54338 17.3671 2.54338 17.2153 2.54338 17.0634C3.18872 17.0824 10.4393 17.1773 17.8986 14.9376C18.3351 15.7728 18.7337 16.6269 19.1133 17.481C18.9235 17.538 18.7147 17.5949 18.5249 17.6518C10.8189 20.1383 6.71909 26.9333 6.37745 27.5027C4.00488 24.8644 2.54338 21.353 2.54338 17.519ZM17.5 32.4566C14.0456 32.4566 10.8568 31.2798 8.33241 29.3059C8.59817 28.7554 11.635 22.9094 20.0623 19.9675C20.1003 19.9485 20.1193 19.9485 20.1573 19.9295C22.2641 25.3769 23.1182 29.9512 23.346 31.2608C21.5428 32.039 19.5689 32.4566 17.5 32.4566ZM25.8324 29.8943C25.6806 28.9832 24.8834 24.6177 22.9284 19.2462C27.6166 18.506 31.7164 19.7207 32.2288 19.8916C31.5835 24.0483 29.192 27.6356 25.8324 29.8943Z" fill="#F9F7F7"/>
</svg>
