<svg width="31" height="25" viewBox="0 0 31 25" fill="none" xmlns="http://www.w3.org/2000/svg">
<path d="M27.1666 0.833496H3.83329C3.05974 0.833496 2.31788 1.14079 1.7709 1.68777C1.22392 2.23475 0.916626 2.97661 0.916626 3.75016V21.2502C0.916626 22.0237 1.22392 22.7656 1.7709 23.3126C2.31788 23.8595 3.05974 24.1668 3.83329 24.1668H27.1666C27.9402 24.1668 28.682 23.8595 29.229 23.3126C29.776 22.7656 30.0833 22.0237 30.0833 21.2502V3.75016C30.0833 2.97661 29.776 2.23475 29.229 1.68777C28.682 1.14079 27.9402 0.833496 27.1666 0.833496ZM27.1666 7.68766L15.5 15.4664L3.83329 7.68766V4.18329L15.5 11.9606L27.1666 4.18329V7.68766Z" fill="#F9F7F7"/>
</svg>
