<svg width="31" height="30" viewBox="0 0 31 30" fill="none" xmlns="http://www.w3.org/2000/svg">
<path fill-rule="evenodd" clip-rule="evenodd" d="M15.538 0.916504C7.50401 0.916504 0.992554 7.42796 0.992554 15.4619C0.992554 21.8873 5.15901 27.34 10.9398 29.265C11.6676 29.3963 11.9301 28.9486 11.9301 28.5636C11.9301 28.218 11.9184 27.3021 11.914 26.0903C7.86714 26.9682 7.01255 24.139 7.01255 24.139C6.35339 22.459 5.39818 22.0113 5.39818 22.0113C4.07839 21.1086 5.4988 21.129 5.4988 21.129C6.96005 21.2311 7.72568 22.6282 7.72568 22.6282C9.02359 24.8507 11.1323 24.209 11.9578 23.8371C12.0905 22.8965 12.4696 22.2548 12.8838 21.8917C9.65505 21.5257 6.26005 20.2773 6.26005 14.7021C6.26005 13.1169 6.82735 11.8161 7.75339 10.8011C7.6061 10.4321 7.10297 8.95192 7.89776 6.95109C7.89776 6.95109 9.11839 6.5588 11.8965 8.44005C13.083 8.11727 14.3069 7.95252 15.5365 7.95005C16.7662 7.95204 17.9901 8.11681 19.1765 8.44005C21.9561 6.55734 23.1753 6.95109 23.1753 6.95109C23.9701 8.95192 23.4713 10.4321 23.3196 10.8011C24.253 11.8161 24.813 13.1155 24.813 14.7021C24.813 20.2919 21.4151 21.5198 18.1746 21.88C18.6923 22.3292 19.159 23.2159 19.159 24.5721C19.159 26.5175 19.1415 28.0867 19.1415 28.5636C19.1415 28.953 19.4011 29.405 20.1434 29.2621C25.9213 27.3342 30.0834 21.8859 30.0834 15.4619C30.0834 7.42796 23.5719 0.916504 15.538 0.916504Z" fill="#F9F7F7"/>
</svg>
