<svg width="27" height="27" viewBox="0 0 27 27" fill="none" xmlns="http://www.w3.org/2000/svg">
<path d="M25.1667 0.375H1.83333C1.44656 0.375 1.07563 0.528645 0.802136 0.802136C0.528645 1.07563 0.375 1.44656 0.375 1.83333V25.1667C0.375 25.5534 0.528645 25.9244 0.802136 26.1979C1.07563 26.4714 1.44656 26.625 1.83333 26.625H25.1667C25.5534 26.625 25.9244 26.4714 26.1979 26.1979C26.4714 25.9244 26.625 25.5534 26.625 25.1667V1.83333C26.625 1.44656 26.4714 1.07563 26.1979 0.802136C25.9244 0.528645 25.5534 0.375 25.1667 0.375ZM8.16104 22.7415H4.26437V10.2144H8.16104V22.7415ZM6.21271 8.50375C5.61398 8.50375 5.03978 8.26591 4.61641 7.84254C4.19305 7.41918 3.95521 6.84498 3.95521 6.24625C3.95521 5.64752 4.19305 5.07332 4.61641 4.64996C5.03978 4.22659 5.61398 3.98875 6.21271 3.98875C6.81143 3.98875 7.38564 4.22659 7.809 4.64996C8.23237 5.07332 8.47021 5.64752 8.47021 6.24625C8.47021 6.84498 8.23237 7.41918 7.809 7.84254C7.38564 8.26591 6.81143 8.50375 6.21271 8.50375ZM22.7429 22.7415H18.8506V16.65C18.8506 15.1975 18.8244 13.3294 16.8265 13.3294C14.7994 13.3294 14.4917 14.9131 14.4917 16.5479V22.7429H10.6023V10.2158H14.3356V11.9279H14.3896C14.9073 10.9435 16.179 9.90521 18.0704 9.90521C22.0138 9.90521 22.7415 12.4981 22.7415 15.8727V22.7415H22.7429Z" fill="#F9F7F7"/>
</svg>
